#!OML:ASF H:\Terrain\Patient Classification 1\Terrain2\Thursday\justin.ASF
:FULLY-SPECIFIED
:DEGREES
1624
root 8.80263 23.67 9.66661 -361.13 2.56687 0.313798
lowerback 8.51237 -0.747905 -2.33675
upperback 4.33598 -1.13761 2.3066
thorax -0.184998 -0.628361 3.79641
lowerneck -9.74607 -0.601152 -8.09892
upperneck 41.8911 0.456947 2.21203
head 16.8338 -0.781065 2.54377
rclavicle -7.95139e-016 7.95139e-016
rhumerus -30.0527 -8.44035 -79.6352
rradius 40.2721
rwrist -12.6842
rhand -19.7867 11.3311
rfingers 7.12502
rthumb 6.54576 -18.5477
lclavicle -7.95139e-016 7.95139e-016
lhumerus -34.7282 3.36125 80.4761
lradius 47.6338
lwrist 7.7015
lhand -12.7968 25.5849
lfingers 7.12502
lthumb 13.2891 -304.859
rfemur -20.8583 -10.9137 20.907
rtibia 48.6925
rfoot -17.1596 6.15725
rtoes 1.98248
lfemur -5.61455 359.657 -19.8597
ltibia 30.6262
lfoot -16.0648 -11.9584
ltoes 7.9017
1625
root 8.78197 23.653 9.73002 -361.168 2.66078 -0.0437423
lowerback 8.38486 -0.761114 -1.86754
upperback 4.30614 -1.11788 2.4279
thorax -0.155517 -0.612557 3.65296
lowerneck -9.81102 -0.646221 -8.18219
upperneck 41.9785 0.441113 2.16923
head 16.9038 -0.808198 2.54037
rclavicle 1.5704e-014 -2.8625e-014
rhumerus -30.1123 -8.49027 -79.5649
rradius 39.8829
rwrist -12.22
rhand -19.6517 11.1458
rfingers 7.12502
rthumb 6.67609 -18.729
lclavicle 1.5704e-014 -2.8625e-014
lhumerus -34.8774 3.82868 80.319
lradius 47.2363
lwrist 7.64067
lhand -13.1142 26.6438
lfingers 7.12502
lthumb 12.9831 -303.78
rfemur -19.8609 -10.9506 21.4263
rtibia 47.7161
rfoot -18.1369 6.103
rtoes 2.36683
lfemur -5.9938 359.534 -19.4063
ltibia 31.6165
lfoot -16.4736 -11.9779
ltoes 9.0699
1626
root 8.76158 23.6302 9.7921 -361.316 2.83573 -0.86397
lowerback 8.31128 -0.748909 -0.850198
upperback 4.26671 -1.02531 2.60197
thorax -0.180355 -0.55148 3.24979
lowerneck -9.68817 -0.705602 -8.06834
upperneck 41.9958 0.32924 2.13073
head 16.8904 -0.838926 2.48452
rclavicle 1.19271e-014 -2.3059e-014
rhumerus -30.3421 -8.83921 -79.4675
rradius 39.4672
rwrist -11.8285
rhand -19.5815 11.5065
rfingers 7.12502
rthumb 6.74378 -18.3661
lclavicle 1.19271e-014 -2.3059e-014
lhumerus -34.9421 4.00169 80.0984
lradius 46.7367
lwrist 7.28097
lhand -14.5024 25.8782
lfingers 7.12502
lthumb 11.6447 -304.465
rfemur -18.6811 -10.8662 22.4751
rtibia 46.71
rfoot -19.0389 4.88634
rtoes 0.702232
lfemur -6.24812 359.42 -18.4421
ltibia 32.6942
lfoot -17.3333 -11.6976
ltoes 6.53846
1627
root 8.74492 23.6044 9.85363 -361.511 2.98937 -1.6158
lowerback 8.28112 -0.735532 0.0760261
upperback 4.29762 -0.939284 2.82974
thorax -0.149242 -0.496959 2.95531
lowerneck -9.82948 -0.75534 -8.21645
upperneck 42.0552 0.274249 2.24044
head 16.9652 -0.869676 2.55625
rclavicle 1.65985e-014 -1.27222e-014
rhumerus -30.485 -8.87122 -79.2917
rradius 38.9774
rwrist -11.8556
rhand -19.4427 11.6424
rfingers 7.12502
rthumb 6.87781 -18.2259
lclavicle 1.65985e-014 -1.27222e-014
lhumerus -34.7986 4.1676 80.023
lradius 46.1623
lwrist 7.52877
lhand -15.957 23.7747
lfingers 7.12502
lthumb 10.2417 -306.495
rfemur -17.573 -10.6853 23.4125
rtibia 45.6507
rfoot -19.8088 4.03198
rtoes 0.566859
lfemur -6.44784 359.059 -17.6265
ltibia 33.8941
lfoot -18.4267 -10.9614
ltoes 1.76879
1628
root 8.72634 23.5929 9.91614 -361.702 3.00807 -1.80632
lowerback 8.33274 -0.688723 0.295044
upperback 4.33387 -0.859602 2.98748
thorax -0.144712 -0.455571 2.98958
lowerneck -9.9867 -0.810178 -8.51663
upperneck 42.0874 0.259976 2.33235
head 17.0287 -0.910133 2.65316
rclavicle -2.38542e-015 -1.19271e-014
rhumerus -30.4844 -8.39801 -79.1595
rradius 38.3934
rwrist -12.2293
rhand -19.8833 10.8339
rfingers 7.12502
rthumb 6.45246 -19.0478
lclavicle -2.38542e-015 -1.19271e-014
lhumerus -34.7838 4.43399 80.0445
lradius 45.7862
lwrist 8.01227
lhand -16.658 22.7937
lfingers 7.12502
lthumb 9.56533 -307.443
rfemur -16.5237 -10.4782 23.7025
rtibia 44.528
rfoot -20.2781 3.95246
rtoes 2.6993
lfemur -6.73469 358.703 -17.4377
ltibia 35.2702
lfoot -19.3853 -10.2899
ltoes -0.932428
1629
root 8.70764 23.5854 9.97679 -361.857 2.98546 -1.96865
lowerback 8.39697 -0.613859 0.472538
upperback 4.29308 -0.742768 3.16532
thorax -0.22763 -0.395478 3.06584
lowerneck -9.87937 -0.864057 -8.69395
upperneck 42.052 0.28331 2.18037
head 16.9863 -0.944231 2.61836
rclavicle -1.28216e-014 -2.38542e-014
rhumerus -30.615 -7.79168 -79.0156
rradius 37.9957
rwrist -12.6517
rhand -20.6133 10.0322
rfingers 7.12502
rthumb 5.74768 -19.8699
lclavicle -1.28216e-014 -2.38542e-014
lhumerus -34.969 4.94134 80.0672
lradius 45.5698
lwrist 7.84098
lhand -16.5553 23.1457
lfingers 7.12502
lthumb 9.66438 -307.096
rfemur -15.5292 -10.2779 23.9826
rtibia 43.3698
rfoot -20.5789 3.86483
rtoes 4.98223
lfemur -7.20066 358.45 -17.2578
ltibia 36.8417
lfoot -18.7556 -10.1718
ltoes -0.354397
1630
root 8.68487 23.5739 10.0304 -362.003 2.87763 -2.68425
lowerback 8.45539 -0.522808 1.23191
upperback 4.25546 -0.559999 3.43595
thorax -0.311899 -0.294987 2.90424
lowerneck -9.85717 -0.921038 -8.66233
upperneck 42.0523 0.276825 1.97226
head 16.986 -0.966437 2.51742
rclavicle -1.27222e-014 3.73715e-014
rhumerus -30.7828 -7.44006 -78.9089
rradius 37.6998
rwrist -12.887
rhand -20.5041 10.7507
rfingers 7.12502
rthumb 5.85309 -19.1485
lclavicle -1.27222e-014 3.73715e-014
lhumerus -35.1542 5.45127 80.011
lradius 45.2722
lwrist 7.55795
lhand -16.8605 22.6461
lfingers 7.12502
lthumb 9.36998 -307.582
rfemur -14.6301 -10.0998 24.9455
rtibia 42.2495
rfoot -20.9044 3.35866
rtoes 4.99645
lfemur -7.81285 358.336 -16.402
ltibia 38.6149
lfoot -18.3038 -9.95899
ltoes -1.74125
1631
root 8.65768 23.5709 10.0784 -362.146 2.78126 -3.54597
lowerback 8.51491 -0.432047 2.15124
upperback 4.28221 -0.367256 3.65212
thorax -0.32809 -0.187414 2.59499
lowerneck -10.0128 -1.00536 -8.52092
upperneck 42.0504 0.138044 1.9531
head 17.034 -1.00201 2.46252
rclavicle 6.4605e-015 -1.03368e-014
rhumerus -30.7336 -7.46833 -78.9166
rradius 37.0794
rwrist -12.8569
rhand -20.1424 11.8032
rfingers 7.12502
rthumb 6.20229 -18.086
lclavicle 6.4605e-015 -1.03368e-014
lhumerus -35.1909 5.53646 79.868
lradius 45.0015
lwrist 7.73365
lhand -17.3426 21.9776
lfingers 7.12502
lthumb 8.90479 -308.23
rfemur -13.8282 -9.73943 26.0835
rtibia 41.2357
rfoot -20.9722 2.9498
rtoes 6.03283
lfemur -8.58289 358.215 -15.2988
ltibia 40.6225
lfoot -17.8415 -10.5088
ltoes 2.19829
1632
root 8.63533 23.5741 10.1238 -362.299 2.76258 -4.10511
lowerback 8.64682 -0.310659 2.87978
upperback 4.31783 -0.144807 3.75305
thorax -0.370344 -0.0666913 2.2719
lowerneck -10.0784 -1.12906 -8.42655
upperneck 41.9741 -0.0941927 2.02281
head 17.0229 -1.06793 2.43882
rclavicle 1.46107e-014 -1.27222e-014
rhumerus -30.5903 -7.84826 -78.87
rradius 36.1826
rwrist -12.4307
rhand -20.0332 12.0959
rfingers 7.12502
rthumb 6.30772 -17.7902
lclavicle 1.46107e-014 -1.27222e-014
lhumerus -35.1402 5.26866 79.8346
lradius 44.7624
lwrist 8.23631
lhand -17.371 22.4261
lfingers 7.12502
lthumb 8.87736 -307.781
rfemur -13.0798 -9.3551 26.8194
rtibia 40.3535
rfoot -21.0261 2.78148
rtoes 7.90545
lfemur -9.51077 358.09 -14.4792
ltibia 42.8714
lfoot -16.6416 -10.9985
ltoes -1.9048
1633
root 8.61916 23.5685 10.1706 -362.481 2.72545 -4.45523
lowerback 8.81221 -0.188345 3.39369
upperback 4.33842 0.0669798 3.85035
thorax -0.441906 0.0451825 2.06658
lowerneck -10.0666 -1.23021 -8.41732
upperneck 41.9219 -0.247428 2.02542
head 17.0026 -1.12408 2.41285
rclavicle 7.45443e-015 2.22639e-014
rhumerus -30.3983 -8.01836 -78.7553
rradius 35.2003
rwrist -11.788
rhand -19.6891 12.1116
rfingers 7.12502
rthumb 6.63999 -17.7643
lclavicle 7.45443e-015 2.22639e-014
lhumerus -35.0501 5.20487 79.9104
lradius 44.1403
lwrist 8.56587
lhand -17.515 23.0595
lfingers 7.12502
lthumb 8.73843 -307.141
rfemur -12.3417 -9.51229 27.1969
rtibia 39.575
rfoot -21.2584 3.08075
rtoes 8.75554
lfemur -10.5381 358.104 -13.9013
ltibia 45.2838
lfoot -14.8474 -12.0013
ltoes 0.425306
1634
root 8.60097 23.5622 10.2172 -362.606 2.68122 -4.84092
lowerback 8.90667 -0.106386 3.825
upperback 4.36148 0.21651 4.01181
thorax -0.468913 0.124252 1.97937
lowerneck -10.2152 -1.29499 -8.52376
upperneck 41.9748 -0.319497 2.08831
head 17.0786 -1.1617 2.45181
rclavicle 2.78299e-015 2.22639e-014
rhumerus -30.1479 -7.82195 -78.6605
rradius 34.1856
rwrist -11.3368
rhand -19.1324 12.3596
rfingers 7.12502
rthumb 7.17736 -17.4987
lclavicle 2.78299e-015 2.22639e-014
lhumerus -35.0062 5.65455 79.9041
lradius 43.449
lwrist 8.38319
lhand -17.6664 23.0586
lfingers 7.12502
lthumb 8.59225 -307.136
rfemur -11.6714 -9.57687 27.6416
rtibia 38.8609
rfoot -21.4222 3.12545
rtoes 7.89228
lfemur -11.7789 358.333 -13.2555
ltibia 47.7629
lfoot -12.7804 -12.8915
ltoes 2.64696
1635
root 8.57694 23.5678 10.2584 -362.727 2.64372 -5.26292
lowerback 9.1266 -0.0451876 4.21404
upperback 4.33304 0.348639 4.19936
thorax -0.617315 0.192068 1.94458
lowerneck -10.2912 -1.3683 -8.66245
upperneck 42.0054 -0.403954 2.14763
head 17.1254 -1.20972 2.49173
rclavicle -4.37326e-015 -2.38542e-014
rhumerus -29.9853 -7.9144 -78.4473
rradius 33.2259
rwrist -10.7628
rhand -18.5607 12.951
rfingers 7.12502
rthumb 7.72918 -16.8878
lclavicle -4.37326e-015 -2.38542e-014
lhumerus -35.2917 6.15267 79.8165
lradius 43.2226
lwrist 8.07782
lhand -17.2897 22.8737
lfingers 7.12502
lthumb 8.95577 -307.336
rfemur -11.0596 -8.89953 28.2669
rtibia 38.1984
rfoot -21.398 2.36032
rtoes 5.92213
lfemur -13.1386 358.665 -12.4892
ltibia 50.2054
lfoot -10.4695 -13.9062
ltoes 2.69239
1636
root 8.55899 23.5837 10.3032 -362.901 2.6913 -5.34988
lowerback 9.38688 0.0168158 4.28961
upperback 4.26782 0.462404 4.31446
thorax -0.828422 0.246202 2.01097
lowerneck -10.1385 -1.47219 -8.74347
upperneck 41.9729 -0.526114 2.07909
head 17.0812 -1.27822 2.45374
rclavicle -2.5842e-015 9.54166e-015
rhumerus -29.9605 -8.44717 -77.9867
rradius 32.4201
rwrist -9.58072
rhand -17.8587 13.1499
rfingers 7.12502
rthumb 8.40669 -16.6628
lclavicle -2.5842e-015 9.54166e-015
lhumerus -35.6536 6.39006 79.8301
lradius 42.8964
lwrist 7.89958
lhand -17.1063 22.4097
lfingers 7.12502
lthumb 9.13272 -307.808
rfemur -10.4185 -8.70239 28.3806
rtibia 37.6219
rfoot -21.3509 2.26096
rtoes 5.5246
lfemur -14.385 358.785 -12.159
ltibia 52.5536
lfoot -8.0208 -14.7436
ltoes 0.419944
1637
root 8.54721 23.602 10.3551 -363.014 2.83052 -5.31043
lowerback 9.41723 0.0884609 4.3005
upperback 4.24527 0.563893 4.39323
thorax -0.869523 0.295998 2.07671
lowerneck -9.99219 -1.56323 -8.74947
upperneck 41.8835 -0.64244 1.99636
head 17.004 -1.33163 2.39602
rclavicle -2.24627e-014 -4.21423e-014
rhumerus -29.958 -9.02248 -77.5036
rradius 31.6763
rwrist -8.55194
rhand -17.4133 13.0863
rfingers 7.12502
rthumb 8.83657 -16.7086
lclavicle -2.24627e-014 -4.21423e-014
lhumerus -35.8525 6.71066 79.9248
lradius 42.3123
lwrist 7.62624
lhand -17.3386 22.1014
lfingers 7.12502
lthumb 8.90864 -308.107
rfemur -9.79536 -9.16529 28.214
rtibia 37.1261
rfoot -21.3727 2.90994
rtoes 6.34878
lfemur -15.6332 358.77 -12.0497
ltibia 54.7711
lfoot -5.63342 -15.1572
ltoes -1.59885
1638
root 8.53395 23.5941 10.4027 -363.192 2.88045 -5.76589
lowerback 9.50846 0.128338 4.84485
upperback 4.2592 0.673045 4.56738
thorax -0.899063 0.355026 1.94275
lowerneck -9.9212 -1.57262 -8.68935
upperneck 41.7732 -0.644075 1.91609
head 16.9229 -1.32687 2.34652
rclavicle -2.78299e-015 1.27222e-014
rhumerus -29.8307 -9.47758 -77.131
rradius 30.7675
rwrist -7.9099
rhand -17.2244 13.1585
rfingers 7.12502
rthumb 9.0188 -16.6287
lclavicle -2.78299e-015 1.27222e-014
lhumerus -36.108 7.08366 79.9767
lradius 41.9166
lwrist 7.6843
lhand -17.6331 21.9416
lfingers 7.12502
lthumb 8.62443 -308.255
rfemur -9.199 -9.42843 28.657
rtibia 36.7036
rfoot -21.2916 3.29463
rtoes 7.4019
lfemur -16.9255 358.933 -11.3334
ltibia 56.937
lfoot -3.35445 -15.4974
ltoes -1.33356
